<svg width="36" height="36" viewBox="0 0 36 36" fill="none" xmlns="http://www.w3.org/2000/svg">
<path d="M18 0C8.07419 0 0 8.07497 0 18C0 27.925 8.07419 36 18 36C27.9258 36 36 27.925 36 18C36 8.07497 27.9258 0 18 0ZM18 34.5C8.90184 34.5 1.49998 27.0982 1.49998 18C1.49998 8.90184 8.90184 1.49998 18 1.49998C27.0982 1.49998 34.5 8.90184 34.5 18C34.5 27.0982 27.0982 34.5 18 34.5Z" fill="#F19451"/>
<path d="M18.75 5.25002C18.75 4.83546 18.4146 4.5 18 4.5C10.5557 4.5 4.5 10.5564 4.5 18C4.5 18.4146 4.83546 18.75 5.25002 18.75C5.66459 18.75 6.00005 18.4146 6.00005 18C6.00005 11.3833 11.3834 5.99998 18.0001 5.99998C18.4146 5.99998 18.75 5.66459 18.75 5.25002Z" fill="#F19451"/>
<path d="M30.7501 17.25C30.3355 17.25 30 17.5855 30 18C30 24.6167 24.6167 30.0001 18 30.0001C17.5855 30.0001 17.25 30.3355 17.25 30.7501C17.25 31.1646 17.5855 31.5001 18 31.5001C25.4444 31.5001 31.5 25.4437 31.5 18.0001C31.5001 17.5855 31.1646 17.25 30.7501 17.25Z" fill="#F19451"/>
</svg>
