<svg width="73" height="78" viewBox="0 0 73 78" fill="none" xmlns="http://www.w3.org/2000/svg">
<path d="M20.3896 38.4277C20.3896 38.4759 20.3917 38.521 20.3938 38.5723C20.442 40.0783 21.1908 40.7841 22.7471 40.7841C23.2097 40.7841 23.6693 40.702 24.0479 40.5594C24.0735 40.5491 24.2172 40.4845 24.2172 40.2855V35.7266C21.6474 36.0754 20.3896 36.5955 20.3896 38.4277Z" fill="#4A8733"/>
<path d="M35.475 34.3186C35.475 34.3145 35.475 34.3083 35.4719 34.3012C35.3929 32.2566 34.6748 31.2656 33.2827 31.2656C32.6528 31.2656 32.1368 31.4852 31.7439 31.915C31.1612 32.5531 30.8647 33.6241 30.8647 35.0962C30.8647 35.126 30.8678 35.1537 30.8678 35.1824C31.1746 35.1434 35.2236 34.6171 35.2319 34.6171C35.2739 34.6099 35.475 34.5607 35.475 34.3186Z" fill="#4A8733"/>
<path d="M45.0133 40.5913C45.5427 40.5913 46.032 40.4631 46.4147 40.2435V31.5873C46.4147 31.3914 46.2269 31.3236 46.2269 31.3236C45.9541 31.2385 45.6063 31.1934 45.1672 31.1934C43.2971 31.1934 42.3481 32.8347 42.3481 36.0713C42.3481 39.112 43.2201 40.5913 45.0133 40.5913Z" fill="#4A8733"/>
<path d="M66.4726 35.6354C65.9063 26.614 48.0676 19.196 36.4322 0C30.3273 2.31948 -0.834345 22.0479 0.0171218 35.5411C0.584425 44.5635 18.418 51.9754 30.0565 71.1724C36.1593 68.8509 67.323 49.1256 66.4726 35.6354ZM50.9287 23.4605C51.0292 22.4336 52.5311 21.7391 53.441 23.1076C54.0884 24.0791 54.1263 24.9644 53.9509 25.7133C53.7939 26.3801 53.6062 26.2549 53.6062 26.2549C53.6062 26.2549 52.5383 25.6456 51.6088 24.5335C50.9051 23.6944 50.9287 23.4605 50.9287 23.4605ZM40.8301 13.5978C41.8395 15.2997 44.7602 20.2382 49.5028 24.1376C45.4475 22.0735 41.4189 18.7477 40.3469 15.9963C40.0094 14.6288 40.8301 13.5978 40.8301 13.5978ZM45.2988 29.1746C46.7729 29.1746 48.1137 29.4597 49.0811 29.9778H49.0842C49.1909 30.0352 49.3961 30.222 49.3961 30.5071V45.9228C49.3961 46.1434 49.2668 46.4183 48.9847 46.5004L47.1033 47.0605C46.9289 47.1138 46.7288 47.0697 46.5842 46.9497C46.4405 46.8358 46.3657 46.6645 46.3657 46.4706C46.3657 46.4706 46.4046 42.6616 46.4108 42.2276C45.8086 42.5128 45.0977 42.6626 44.2832 42.6626C41.2979 42.6626 39.3693 40.1503 39.3693 36.2633C39.3682 31.7546 41.5318 29.1746 45.2988 29.1746ZM16.9582 42.2061C16.9069 42.3097 16.7992 42.4451 16.5735 42.5015C15.998 42.6431 15.3148 42.7088 14.4336 42.7088C10.761 42.7088 8.74106 40.4026 8.74106 36.1997L8.74928 35.8221V26.6684C8.74928 26.3688 8.91033 26.1493 9.19142 26.0682L10.9323 25.5276C11.0144 25.503 11.3078 25.4384 11.5273 25.6169C11.6771 25.74 11.751 25.9379 11.751 26.2036V29.5952H15.0532C15.4615 29.5952 15.6144 29.9511 15.6185 30.1902V31.1524C15.6185 31.4017 15.44 31.7536 15.045 31.7536H11.751V37.4153C11.9828 39.5471 12.8148 40.379 14.7177 40.379C15.1589 40.379 15.5815 40.3452 15.995 40.2703C16.3407 40.2272 16.5489 40.4662 16.6248 40.6837V40.6827L16.9849 41.6932C17.0188 41.7814 17.0526 42.003 16.9582 42.2061ZM27.062 41.3475C27.062 41.6275 26.8906 41.8194 26.7347 41.9004C25.674 42.4246 24.1947 42.7088 22.5687 42.7088C18.4529 42.7088 17.5635 40.5165 17.544 38.6761V38.6135C17.544 35.2384 20.7293 34.4003 24.2173 34.0259V33.2811C24.2173 31.9198 23.5494 31.3371 21.9952 31.3371C21.2043 31.3371 20.3518 31.531 19.4531 31.9167C19.0787 32.0767 18.7863 31.8182 18.7012 31.5853L18.6458 31.4458L18.3914 30.7657C18.2519 30.3522 18.5032 30.0599 18.694 29.9778C19.5085 29.6105 20.8257 29.1756 22.4805 29.1756C25.476 29.1756 27.063 30.7513 27.063 33.7304V41.3475H27.062ZM28.1237 35.9042C28.1237 31.6889 30.0862 29.1746 33.3731 29.1746C36.5707 29.1746 38.3321 31.4017 38.3321 35.4528C38.3321 35.857 38.0356 36.0396 37.8356 36.0643C37.8356 36.0643 31.3265 36.9301 31.0413 36.966C31.2311 39.1972 32.2816 40.379 34.1015 40.379C35.2494 40.379 36.0783 40.1103 36.6764 39.8784C37.0775 39.7215 37.3442 39.9995 37.4304 40.2241C37.4304 40.2241 37.7812 41.211 37.7812 41.2151C37.9207 41.6091 37.6694 41.8973 37.4776 41.9866C36.4968 42.4626 35.2289 42.7077 33.8132 42.7077C30.2504 42.7088 28.1237 40.1667 28.1237 35.9042ZM49.6033 52.792C43.6892 58.5594 37.1985 62.5839 37.1985 62.5839C36.5389 60.3957 38.5352 59.6078 38.5352 59.6078C43.2583 57.355 46.0066 55.927 49.4771 52.6853C56.3288 46.0469 55.9329 39.2721 55.8898 35.6313C55.8231 29.786 52.367 26.216 52.367 26.216C56.9874 28.6349 58.914 31.93 59.0823 35.4303C59.3777 41.5393 54.7039 47.8145 49.6033 52.792Z" fill="#4A8733"/>
<path d="M39.1283 71.6397C39.0473 71.7628 39.0791 71.8889 39.075 72.049C39.0658 72.6224 39.0637 73.1323 39.0247 73.6863C38.955 74.5069 38.917 75.4713 38.8575 76.3238C38.8329 76.6151 38.8442 76.8613 38.9283 77.1352C38.9426 77.1742 38.915 77.2029 38.9078 77.2378C38.8944 77.2758 38.8154 77.2819 38.7806 77.3445C38.6975 77.4799 38.6359 77.5907 38.5508 77.6594C38.4472 77.7312 38.1394 77.4645 38.0573 77.405C37.0263 76.5823 36.2518 75.4559 35.2188 74.6454C35.1049 74.548 34.6586 74.2207 34.6002 74.1243C34.5355 74.033 34.714 73.7232 34.8197 73.6401C34.9295 73.5642 35.2506 73.6257 35.428 73.7673C35.6455 73.9294 35.8312 74.0843 36.021 74.2761C36.2415 74.5049 36.5042 74.7244 36.7186 74.9573C37.0551 75.3307 37.4049 75.6959 37.7414 76.0693C37.9055 76.2489 38.0789 76.3833 38.1363 76.3432C38.2194 76.2848 38.2133 76.017 38.2615 75.5533C38.3487 74.7008 38.3733 73.9119 38.4113 73.2492C38.4492 72.4511 38.3887 71.9454 38.402 71.4376C38.4061 71.2488 38.5292 71.1349 38.6975 71.018C38.8072 70.9421 39.1006 71.1401 39.1509 71.2221C39.2012 71.3063 39.1704 71.572 39.1283 71.6397Z" fill="#4A8733"/>
<path d="M39.9396 70.9008C39.7991 71.0014 39.5088 70.8639 39.4257 70.7449C39.3652 70.6495 39.4606 70.314 39.6073 70.2094C39.7099 70.1366 40.0833 70.2443 40.1479 70.3469C40.2095 70.4597 40.0484 70.8229 39.9396 70.9008ZM40.4218 72.3442C40.5942 72.7648 40.7829 73.1239 40.9183 73.5599C41.0189 73.8841 41.103 74.2082 41.183 74.4678C41.2415 74.6924 41.2805 74.873 41.2999 75.0658C41.3174 75.2115 41.3574 75.6875 41.1553 75.8229C41.0917 75.8691 40.9183 75.8445 40.8906 75.785C40.8311 75.6598 40.8065 75.4598 40.7634 75.3921C40.7357 75.3623 40.7101 75.3213 40.6926 75.2649C40.6865 75.2402 40.6772 75.2259 40.6752 75.2074C40.5285 74.5611 40.3141 73.9538 40.1202 73.3814C40.0556 73.1906 40.0002 73.0418 39.914 72.8172C39.8709 72.7197 39.7406 72.5556 39.7119 72.3791C39.6924 72.2447 39.876 72.0057 39.9653 71.9411C40.0863 71.8539 40.2536 72.0016 40.3192 72.0929C40.3664 72.1678 40.391 72.2673 40.4218 72.3442Z" fill="#4A8733"/>
<path d="M42.9855 68.8407C43.0584 69.0264 43.1333 69.2408 43.1989 69.4306C43.3754 69.9199 43.4974 70.2389 43.6882 70.6472C43.7211 70.7129 43.7129 70.7878 43.7406 70.8586C43.9078 71.2043 44.2515 72.2383 44.5264 72.6641C44.6618 72.8734 44.4874 73.2119 44.3951 73.2704C44.3325 73.3176 44.1489 73.2222 43.9745 72.9523C43.8473 72.7564 43.7601 72.5923 43.6493 72.3348C43.5621 72.1296 43.5149 71.9542 43.4841 71.907C43.4585 71.867 43.4256 71.8598 43.3949 71.8834C43.3128 71.9439 43.3456 72.2989 43.3118 72.7226C43.2574 73.4612 43.0573 74.4378 42.6583 74.7312C42.4746 74.8666 42.1341 74.8882 41.9566 74.7599C41.9073 74.7271 41.8612 74.6707 41.8212 74.6091C41.3082 73.8007 41.3431 71.8188 41.8704 70.8719C41.9125 70.7908 42.0694 70.5857 42.1546 70.4728C42.2428 70.3774 42.3485 70.28 42.4193 70.2174C42.4911 70.1548 42.5803 70.1189 42.6244 70.0861C42.6685 70.0533 42.6819 70.003 42.6511 69.8963C42.6039 69.7219 42.4377 69.3064 42.3505 69.1002C42.2397 68.8427 42.0797 68.5811 42.012 68.3021C41.9822 68.1841 42.1874 67.9236 42.2808 67.8651C42.3823 67.7902 42.5147 67.822 42.5844 67.9297C42.6962 68.1051 42.8963 68.617 42.9855 68.8407ZM42.5783 70.638C42.0346 71.0391 41.9863 71.5726 41.9884 72.2404C41.9833 72.3338 41.9709 72.4733 41.9792 72.5574C42.0222 73.1144 42.0541 73.5986 42.3587 74.0541C42.4028 74.1218 42.4777 74.1362 42.5342 74.0941C42.6039 74.0428 42.7086 73.9156 42.7547 73.7125C42.9691 72.9452 42.9496 71.9921 42.9363 71.0042C42.9394 70.9222 42.8696 70.7129 42.8306 70.6534C42.7906 70.5908 42.6408 70.5908 42.5783 70.638Z" fill="#4A8733"/>
<path d="M46.6715 68.6159C46.7629 68.8785 46.8275 69.1422 46.9219 69.3945C47.047 69.7331 47.2378 70.284 47.3784 70.5199C47.3968 70.5466 47.5087 70.602 47.5394 70.6482C47.5979 70.7343 47.4738 71.0831 47.3866 71.1508C47.1742 71.3139 46.966 71.2011 46.8039 70.961C46.6346 70.6974 46.5782 70.1639 46.4746 70.0101C46.452 69.9762 46.4264 69.966 46.4018 69.9854C46.371 70.009 46.3063 70.3927 46.2879 70.4779C46.2674 70.5743 46.251 70.7589 46.2038 70.8862C46.1822 70.9528 46.175 70.999 46.1679 71.0862C46.0909 71.4073 45.8755 72.0998 45.6754 72.2526C45.5626 72.3398 45.2825 72.4434 45.1605 72.4167C45.102 72.4003 44.8794 72.268 44.8096 72.1911C44.785 72.1695 44.7665 72.1428 44.7532 72.1223C44.5511 71.8228 44.4588 71.3068 44.4465 70.9221C44.4403 70.8154 44.4239 70.7066 44.4249 70.5948C44.4157 70.5107 44.4341 70.3845 44.4383 70.2912C44.4475 70.1937 44.4352 70.0911 44.4465 69.9813C44.5131 69.6572 44.6024 69.215 44.7347 68.9206C44.7665 68.8549 44.7778 68.7862 44.8035 68.7267C44.9122 68.4805 44.9963 68.2958 45.2702 68.0845C45.5698 67.8537 45.9996 67.8168 46.3053 68.0168C46.334 68.0455 46.4571 68.103 46.4982 68.1214C46.5823 68.2599 46.611 68.4702 46.6715 68.6159ZM45.3708 68.6549C45.1564 68.8293 44.9471 69.5566 44.9932 70.5117C45.0004 70.9015 45.1081 71.3847 45.2518 71.5981C45.3061 71.6781 45.3995 71.7181 45.499 71.6412C45.6057 71.5601 45.6672 71.3704 45.7196 71.238C45.937 70.6471 46.015 70.0603 46.0458 69.4602C46.0468 69.3781 46.055 69.2909 46.0601 69.1863C46.0704 69.0468 45.9668 68.7534 45.895 68.6467C45.7924 68.4928 45.4959 68.5585 45.3708 68.6549Z" fill="#4A8733"/>
<path d="M49.8416 65.524C49.8744 65.6112 49.86 65.6851 49.8683 65.7507C49.8672 65.8041 49.8549 65.8543 49.858 65.9138C49.8662 65.9795 49.8672 66.1026 49.8344 66.315C49.7554 66.8535 49.463 67.3798 49.222 67.585C49.1666 67.6301 49.0701 67.6568 49.0147 67.7009C48.9398 67.7727 48.946 68.0661 49.2291 68.4754C49.4856 68.8345 49.7339 68.8704 50.015 68.6426C50.254 68.4488 50.3535 68.0589 50.3873 67.6599C50.413 67.3706 50.4171 67.2136 50.4386 66.9182C50.4458 66.8197 50.5504 66.6001 50.6099 66.5622C50.6582 66.5222 50.7392 66.5396 50.7618 66.5724C50.7854 66.6053 50.8336 66.8238 50.8346 66.9869C50.8767 68.0364 50.4027 68.9566 49.9678 69.3095C49.6128 69.5977 49.1778 69.6111 48.8003 69.0817C48.6977 68.9381 48.6126 68.7914 48.5469 68.658C48.5233 68.6252 48.5131 68.5821 48.4967 68.5339C48.4751 68.4898 48.4567 68.4641 48.4403 68.4139C48.4177 68.3698 48.4023 68.3205 48.4013 68.2908C48.3315 68.0702 48.2977 67.8189 48.2607 67.5911C48.1633 66.8853 48.2556 66.079 48.5069 65.4009C48.591 65.167 48.7419 64.9311 48.9265 64.771C49.1717 64.572 49.4425 64.6818 49.6015 64.9044C49.7246 65.0613 49.7944 65.2952 49.8416 65.524ZM49.0065 65.4902C48.9573 65.5302 48.8968 65.6204 48.868 65.6748C48.7511 65.9446 48.6782 66.8597 48.826 67.0803C48.8629 67.1326 48.9922 67.1521 49.0414 67.111C49.463 66.7694 49.4579 65.9067 49.1727 65.5199C49.1265 65.4553 49.067 65.4409 49.0065 65.4902Z" fill="#4A8733"/>
<path d="M51.4848 65.1529C51.4868 64.879 51.4971 64.5763 51.5043 64.3086C51.5268 64.049 51.5914 63.7526 51.6756 63.4294C51.7474 63.2222 51.9125 62.9042 52.0644 62.7647C52.4378 62.4477 52.9784 63.1227 53.1692 63.3791C53.4606 63.772 53.6401 64.4891 53.7909 64.9282C53.8186 65.0308 53.8658 65.1477 53.8863 65.2554C53.9037 65.3047 53.9017 65.3683 53.912 65.434C53.915 65.5047 53.9294 65.5755 53.953 65.6607C53.9704 65.7509 53.8186 65.9951 53.7458 66.0566C53.6432 66.1428 53.4698 66.029 53.4083 65.9448C53.3652 65.8874 53.3231 65.6196 53.2944 65.5273C53.2564 65.4237 53.1764 65.3026 53.1487 65.2001C52.9517 64.5384 52.9087 64.1249 52.4881 63.5587C52.4306 63.4817 52.3198 63.334 52.2121 63.4253C52.17 63.4612 52.1044 63.611 52.0746 63.73C51.9546 64.1885 51.9115 64.8431 51.9433 65.5078C51.972 66.0608 52.0459 66.6363 52.1198 67.1184C52.1362 67.219 52.0285 67.458 51.9392 67.5226C51.8551 67.5934 51.5925 67.4918 51.5586 67.4457C51.4447 67.2908 51.1801 66.5932 51.018 66.2167C50.8046 65.7058 50.5399 65.2175 50.3389 64.6953C50.304 64.6092 50.2804 64.525 50.2424 64.4214C50.1973 64.2809 50.2291 63.9813 50.385 63.8603C50.541 63.7279 50.6805 63.809 50.781 63.9444C50.8621 64.0531 51.0395 64.4378 51.1308 64.7056C51.2078 64.9015 51.2888 65.117 51.3627 65.2421C51.3914 65.2811 51.4242 65.2842 51.4478 65.2647C51.4807 65.2401 51.4796 65.199 51.4848 65.1529Z" fill="#4A8733"/>
<path d="M56.1217 60.0557C56.1597 60.1408 56.1484 60.2157 56.1597 60.2803C56.1607 60.3326 56.1515 60.385 56.1587 60.4434C56.17 60.5081 56.1771 60.6312 56.1546 60.8446C56.1022 61.3883 55.8365 61.9299 55.6078 62.1484C55.5544 62.1966 55.46 62.2295 55.4067 62.2767C55.3359 62.3526 55.3564 62.6449 55.6591 63.0379C55.933 63.3825 56.1833 63.4041 56.4521 63.1599C56.6808 62.9527 56.7598 62.5577 56.7742 62.1577C56.7855 61.8673 56.7814 61.7094 56.7875 61.4139C56.7896 61.3154 56.8829 61.0897 56.9414 61.0487C56.9886 61.0066 57.0696 61.019 57.0943 61.0508C57.1189 61.0815 57.1794 61.297 57.1886 61.4611C57.284 62.5065 56.8563 63.4533 56.4398 63.8298C56.1002 64.1376 55.6662 64.1755 55.2631 63.6688C55.1533 63.5313 55.061 63.3887 54.9882 63.2605C54.9635 63.2297 54.9502 63.1876 54.9317 63.1394C54.9081 63.0963 54.8876 63.0717 54.8702 63.0235C54.8466 62.9804 54.8281 62.9322 54.825 62.9024C54.743 62.686 54.6978 62.4367 54.6486 62.211C54.5162 61.5124 54.5676 60.7009 54.784 60.0095C54.8568 59.7715 54.9953 59.5273 55.1728 59.356C55.4067 59.1437 55.6837 59.2381 55.8529 59.4504C55.9822 59.6012 56.0633 59.8289 56.1217 60.0557ZM55.2857 60.07C55.2385 60.1121 55.1831 60.2065 55.1564 60.2629C55.0538 60.5388 55.0271 61.457 55.1851 61.6694C55.2251 61.7196 55.3544 61.7309 55.4016 61.6878C55.8058 61.3216 55.7576 60.4609 55.4529 60.0905C55.4047 60.028 55.3441 60.0167 55.2857 60.07Z" fill="#4A8733"/>
<path d="M59.1642 58.1105C59.3653 58.4244 59.4915 58.723 59.6556 59.0287C59.9049 59.4739 60.1655 59.9191 60.3912 60.3859C60.4107 60.4331 60.4117 60.509 60.4363 60.5623C60.4856 60.6701 60.5553 60.7901 60.6097 60.904C60.7584 61.1912 60.8959 61.4784 61.0282 61.7708C61.059 61.819 61.1288 61.9401 61.137 61.9862C61.1401 62.137 61.0036 62.3556 60.9 62.4551C60.7851 62.5638 60.6435 62.4684 60.5707 62.3832C60.5307 62.3227 60.4907 62.1401 60.4568 62.0622C60.3101 61.74 60.185 61.4302 60.0198 61.1235C59.8721 60.8239 59.7028 60.5234 59.5602 60.2187C59.433 59.9561 59.3068 59.6462 59.195 59.4883C59.1304 59.3734 59.0822 59.3539 59.0309 59.4031C58.9847 59.4472 58.9786 59.5632 58.9765 59.7201C58.957 60.0915 58.8678 60.6731 58.7365 60.985C58.7057 61.0578 58.6482 61.1019 58.6216 61.1932C58.598 61.3256 58.5354 61.4846 58.4092 61.6056C58.122 61.8908 57.8388 62.0191 57.5393 61.6764C57.2828 61.3707 57.0028 60.5808 57.0028 60.151C56.9997 59.7909 56.9463 59.0256 56.9997 58.7209C57.0222 58.6122 57.0592 58.5322 57.0961 58.4419C57.1925 58.0521 57.3721 57.6273 57.6757 57.337C57.9045 57.1298 58.1917 57.1637 58.4728 57.2047C58.5754 57.216 58.6872 57.1647 58.7693 57.2621C58.9427 57.4642 59.0534 57.9525 59.1642 58.1105ZM57.7752 57.9177C57.6675 58.01 57.5967 58.209 57.5659 58.3824C57.45 58.9333 57.5126 59.6227 57.5711 60.1735C57.5854 60.3018 57.646 60.4105 57.6829 60.5398C57.7527 60.7706 57.7865 60.9583 57.9506 61.1543C58.0327 61.2517 58.1025 61.2856 58.2051 61.1871C58.4513 60.9522 58.6041 59.7919 58.5303 58.683C58.518 58.607 58.5282 58.5086 58.5169 58.4203C58.4913 58.2788 58.3651 57.9813 58.2779 57.8766C58.1548 57.732 57.9065 57.7925 57.7752 57.9177Z" fill="#4A8733"/>
<path d="M62.0602 55.8958C62.092 55.9656 62.2172 56.2015 62.2859 56.3246C62.4008 56.5596 62.5209 56.7996 62.606 56.894C62.644 56.9361 62.7465 56.932 62.7999 56.9915C62.8799 57.0807 62.7691 57.4562 62.686 57.5403C62.5578 57.6819 62.3834 57.7014 62.1977 57.4828C62.0007 57.2633 61.8705 56.9412 61.7504 56.7001C61.7197 56.6304 61.615 56.3841 61.5565 56.3195C61.535 56.2959 61.4817 56.2949 61.4642 56.3113C61.4139 56.3626 61.4324 56.5606 61.4221 56.775C61.4201 56.8673 61.4129 56.9658 61.4273 57.0879C61.4304 57.1864 61.4334 57.2859 61.4334 57.332C61.4416 57.7219 61.4734 58.8842 61.2231 59.1396C61.1503 59.2135 60.9544 59.2207 60.8569 59.2186C60.7533 59.2104 60.6097 59.0852 60.5512 59.0196C60.2311 58.6636 59.4648 57.014 59.2842 56.4939C59.2535 56.4231 59.2217 56.3523 59.1745 56.2764C59.0955 56.1646 59.2063 55.7779 59.2945 55.6876C59.3838 55.5963 59.5992 55.7061 59.6741 55.7768C59.7859 55.901 60.1593 56.8037 60.2947 57.0633C60.4209 57.3095 60.7215 58.0594 60.8179 58.1661C60.8548 58.2081 60.9205 58.1866 60.9431 58.163C60.9985 58.1055 61.0026 57.5895 60.9954 57.1997C60.9831 56.4621 60.9369 56.0661 60.9072 55.3337C60.899 55.1941 60.8692 55.0536 60.8559 54.9202C60.8425 54.7746 60.899 54.6597 60.9995 54.5571C61.0436 54.5119 61.2878 54.5468 61.3319 54.5355C61.3596 54.5304 61.3852 54.5479 61.4078 54.5714C61.5227 54.7161 61.9402 55.6322 62.0602 55.8958Z" fill="#4A8733"/>
<path d="M61.6134 52.0234C61.4955 52.1527 61.1846 52.0788 61.08 51.9803C61.003 51.8993 61.0338 51.5505 61.1579 51.4161C61.2441 51.3227 61.6309 51.3494 61.7129 51.4356C61.796 51.5351 61.7047 51.9249 61.6134 52.0234ZM62.3551 53.3365C62.6024 53.712 62.8547 54.0238 63.0681 54.4229C63.2281 54.7184 63.3718 55.0189 63.4969 55.2559C63.5964 55.4642 63.6682 55.6324 63.7236 55.8181C63.7677 55.9576 63.895 56.4151 63.7226 56.5895C63.6693 56.648 63.4949 56.6613 63.4569 56.609C63.3738 56.4993 63.3133 56.3084 63.2589 56.25C63.2261 56.2274 63.1922 56.1925 63.1656 56.1402C63.1543 56.1176 63.143 56.1053 63.1379 56.0879C62.8732 55.4857 62.549 54.9369 62.2525 54.4157C62.153 54.2413 62.071 54.109 61.9448 53.9069C61.8843 53.8197 61.7252 53.6874 61.6647 53.5191C61.6206 53.3919 61.755 53.118 61.8309 53.037C61.9335 52.9251 62.1243 53.0349 62.2064 53.1098C62.2679 53.1755 62.312 53.2678 62.3551 53.3365Z" fill="#4A8733"/>
<path d="M63.0236 51.3116C63.0687 51.3917 63.1364 51.483 63.1867 51.5455C63.3621 51.8133 63.4719 52.0954 63.6452 52.3519C63.7304 52.4832 63.7919 52.5806 63.8781 52.7355C64.2577 53.4044 64.7624 54.3256 64.9748 54.5411C65.024 54.5924 65.1061 54.6077 65.1512 54.6416C65.2179 54.7093 65.0856 55.1073 65.0332 55.1668C64.9594 55.2499 64.7522 55.2438 64.6855 55.1761C64.6352 55.1248 64.5511 55.0519 64.5018 55.0007C64.4403 54.9381 64.3736 54.8591 64.3172 54.7914C64.1612 54.5975 64.0135 54.3585 63.8945 54.1697C63.7694 53.9645 63.5375 53.5583 63.3836 53.2659C63.2472 53.0023 63.0779 52.7632 62.8923 52.4483C62.6994 52.1282 62.5414 51.8656 62.3106 51.4942C62.2706 51.4317 62.0849 51.1526 62.0295 51.0952C61.9403 51.0049 61.8305 50.9382 61.7412 50.8469C61.6746 50.7792 61.7853 50.3812 61.8592 50.2981C61.9546 50.1914 62.1721 50.174 62.2614 50.2642C62.5599 50.5576 62.8471 50.9741 63.0236 51.3116Z" fill="#4A8733"/>
<path d="M63.7706 49.5522C63.6567 49.6856 63.3438 49.6251 63.2361 49.5307C63.1571 49.4527 63.1745 49.1039 63.2946 48.9644C63.3777 48.868 63.7644 48.8782 63.8496 48.9613C63.9347 49.0567 63.8588 49.4486 63.7706 49.5522ZM64.5595 50.8325C64.82 51.1977 65.0827 51.4993 65.3104 51.8891C65.4807 52.1764 65.6346 52.4718 65.769 52.7037C65.8756 52.9078 65.9536 53.073 66.0152 53.2556C66.0644 53.3931 66.2091 53.8444 66.0418 54.027C65.9895 54.0886 65.8162 54.1081 65.7761 54.0568C65.69 53.9511 65.6223 53.7624 65.5648 53.707C65.532 53.6854 65.4971 53.6526 65.4684 53.6013C65.4561 53.5787 65.4448 53.5674 65.4386 53.55C65.1524 52.9601 64.8088 52.4236 64.4938 51.9158C64.3882 51.7465 64.3009 51.6173 64.1676 51.4203C64.105 51.3362 63.9409 51.21 63.8752 51.0448C63.826 50.9197 63.9511 50.6407 64.0229 50.5555C64.1214 50.4396 64.3163 50.5411 64.4015 50.613C64.4661 50.6745 64.5133 50.7648 64.5595 50.8325Z" fill="#4A8733"/>
<path d="M68.3972 49.6953C68.3972 49.7589 68.3746 49.8256 68.3818 49.918C68.3859 50.0287 68.4218 50.1354 68.3931 50.2606C68.2546 50.8556 68.1838 51.468 67.8022 51.9512C67.7027 52.0764 67.4811 52.1666 67.3878 52.2333C67.3365 52.2723 67.2913 52.3298 67.2031 52.3903C67.1672 52.4108 67.0862 52.4241 67.039 52.4457C66.9651 52.4754 66.919 52.5093 66.841 52.4929C66.7528 52.4775 66.6779 52.4313 66.6009 52.3626C66.4891 52.2621 66.4429 52.0918 66.3681 51.9697C66.0531 51.4506 65.7577 51.0351 65.3299 50.4565C65.176 50.2432 64.9452 49.9385 64.8529 49.8133C64.6826 49.5845 64.4876 49.3332 64.3163 49.1044C64.2312 48.9957 64.0383 48.6931 63.8937 48.4674C63.8116 48.3289 63.6536 47.778 63.7572 47.6467C63.8065 47.5841 64.1224 47.5031 64.1758 47.5503C64.2168 47.5882 64.3215 47.7349 64.3481 47.8026C64.3769 47.8816 64.4117 47.978 64.461 48.055C64.7985 48.6592 65.1083 49.0562 65.4714 49.5763C65.5699 49.7189 65.6571 49.8502 65.7402 49.9477C65.7607 49.9867 65.8203 49.9877 65.8408 49.9621C65.85 49.9487 65.8244 49.8184 65.8223 49.7425C65.8038 49.4358 65.7618 48.8398 65.8849 48.531C65.9628 48.3432 66.0223 48.1391 66.1619 47.9637C66.2008 47.9134 66.2696 47.8785 66.3198 47.8272C66.5332 47.6334 67.0585 47.58 67.3437 47.6641C67.4606 47.6939 67.6678 47.8149 67.755 47.8949C68.1797 48.2755 68.4023 49.1414 68.3972 49.6953ZM66.5445 48.3084C66.5189 48.3279 66.4624 48.374 66.4378 48.4058C66.2983 48.5812 66.2398 48.8613 66.2265 49.3106C66.2183 49.7538 66.2614 50.0821 66.5435 50.6915C66.6748 50.9705 67.0554 51.6989 67.1611 51.7943C67.2554 51.8784 67.4473 51.6865 67.517 51.5993C67.6658 51.4106 67.7273 51.1664 67.7889 50.8987C67.9315 50.2216 67.8248 49.2358 67.5304 48.691C67.4914 48.6131 67.4257 48.5433 67.3611 48.4848C67.0739 48.2253 66.8143 48.1206 66.5445 48.3084Z" fill="#4A8733"/>
<path d="M69.0292 45.3582C69.021 45.3829 69.02 45.4126 69.0107 45.4659C68.9769 45.5419 68.9277 45.625 68.9287 45.6783C68.9082 45.7337 68.902 45.8106 68.9297 45.8537C68.9359 46.3102 69.0497 46.8324 69.2344 47.3207C69.3585 47.6367 69.6293 48.0583 69.7945 48.2327C69.8581 48.2943 70.0161 48.4522 70.0459 48.5466C70.0807 48.6882 70.0182 48.762 69.9802 48.8852C69.9515 48.9539 69.9504 49.036 69.9186 49.0821C69.8581 49.1673 69.6632 49.1437 69.5904 49.0965C69.4447 48.9898 69.3206 48.838 69.2098 48.7087C68.9482 48.3968 68.7276 48.0542 68.4435 47.7752C68.2947 47.6449 68.1695 47.4941 68.0259 47.3576C67.988 47.3156 67.9459 47.293 67.9079 47.252C67.871 47.2222 67.8361 47.1638 67.8033 47.1268C67.7654 47.0858 67.6361 46.9411 67.5817 46.8673C67.5099 46.7791 67.3919 46.6734 67.3365 46.5472C67.2811 46.42 67.3632 46.1266 67.4371 46.022C67.5017 45.9296 67.6587 45.9532 67.7192 46.0025C67.7797 46.0404 67.8351 46.1256 67.8792 46.1717C67.9675 46.2528 67.9869 46.3195 68.0495 46.381C68.1695 46.539 68.2311 46.5882 68.3183 46.6693C68.3798 46.7596 68.4609 46.8355 68.5286 46.8888C68.5707 46.9124 68.6209 46.8806 68.6353 46.8611C68.6466 46.818 68.6353 46.738 68.6127 46.6477C68.5686 46.4785 68.4906 46.221 68.4763 46.0353C68.4363 45.9009 68.4147 45.7399 68.4034 45.5655C68.3716 45.2423 68.4086 45.0259 68.5245 44.8617C68.6363 44.7037 68.8056 44.6135 68.9205 44.6966C69.0005 44.7704 69.0928 45.1736 69.0292 45.3582Z" fill="#4A8733"/>
<path d="M68.6558 42.8479C68.5593 42.9967 68.2423 42.9834 68.1233 42.9054C68.0351 42.8408 68.0074 42.492 68.1079 42.336C68.1777 42.2273 68.5614 42.1811 68.6568 42.2509C68.7542 42.333 68.7296 42.733 68.6558 42.8479ZM69.6026 44.001C69.9083 44.3242 70.2069 44.5837 70.4838 44.9366C70.69 45.1972 70.8809 45.4659 71.044 45.6752C71.1753 45.8619 71.2738 46.0138 71.3589 46.1851C71.4256 46.3143 71.6267 46.7401 71.4851 46.9463C71.441 47.014 71.2717 47.0591 71.2266 47.015C71.1281 46.9227 71.0358 46.7462 70.9732 46.699C70.9373 46.6826 70.8983 46.6549 70.8634 46.6088C70.848 46.5882 70.8357 46.578 70.8275 46.5626C70.4685 46.0199 70.0581 45.5398 69.6806 45.0833C69.5544 44.9315 69.4518 44.8155 69.2938 44.6401C69.221 44.5663 69.0425 44.4657 68.9543 44.3118C68.8907 44.1949 68.9768 43.8995 69.0384 43.8051C69.1205 43.6768 69.3267 43.7476 69.42 43.8061C69.4887 43.8584 69.5483 43.9415 69.6026 44.001Z" fill="#4A8733"/>
<path d="M72.9902 43.8113C73.023 44.1499 72.9789 44.4956 72.8106 44.79C72.7624 44.8741 72.6814 44.9367 72.6075 45.0044C72.4444 45.1491 72.2177 45.1839 72.0074 45.1727C71.9458 45.1706 71.874 45.1532 71.8176 45.1255C71.7468 45.1091 71.6668 45.0762 71.6001 45.0331C71.3313 44.8577 70.9877 44.5294 70.7066 44.154C70.4542 43.8072 70.2767 43.3754 70.1813 43.006C70.1393 42.8737 70.09 42.7547 70.0706 42.6172C70.0511 42.5085 70.0808 42.3936 70.0829 42.2787C70.0839 42.1361 70.1167 41.9833 70.1885 41.8571C70.2809 41.696 70.406 41.5852 70.5414 41.4908C70.7097 41.3698 70.9107 41.2693 71.1149 41.258C71.3149 41.2539 71.6124 41.3318 71.7837 41.4426C72.4157 41.853 72.9378 43.0368 72.9902 43.8113ZM70.682 42.052C70.526 42.3249 70.6502 42.9445 71.1087 43.6072C71.1672 43.6934 71.2544 43.7785 71.3344 43.8596C71.4462 43.9796 71.556 44.1181 71.6894 44.2145C71.7714 44.2771 71.8463 44.3356 71.9243 44.3869C72.0946 44.4976 72.3213 44.6064 72.4526 44.3745C72.6537 44.0052 72.4629 43.1897 71.991 42.5957C71.9345 42.5208 71.8925 42.4357 71.833 42.368C71.6924 42.2202 71.5427 42.1033 71.3693 41.9812C71.16 41.8437 70.8215 41.8068 70.682 42.052Z" fill="#4A8733"/>
</svg>
