<svg width="81" height="81" viewBox="0 0 81 81" fill="none" xmlns="http://www.w3.org/2000/svg">
<g filter="url(#filter0_d)">
<circle cx="40.5" cy="36.5" r="36.5" fill="#D8ED75"/>
</g>
<g clip-path="url(#clip0)">
<path d="M58.75 30.2935V30.2903C58.75 30.2598 58.7483 30.2297 58.7458 30.1997C58.7451 30.1915 58.744 30.1833 58.7432 30.1751C58.7406 30.1516 58.7373 30.1283 58.7332 30.1052C58.7318 30.0965 58.7303 30.0878 58.7285 30.0792C58.7228 30.051 58.7164 30.0231 58.7084 29.9956C58.7077 29.9929 58.707 29.9901 58.7062 29.9874C58.6979 29.9593 58.6882 29.9318 58.6776 29.9045C58.6736 29.8941 58.6692 29.8839 58.6649 29.8736C58.6571 29.8552 58.6488 29.837 58.6399 29.8191C58.6348 29.8087 58.6299 29.7982 58.6245 29.788C58.6111 29.7629 58.5969 29.7384 58.5817 29.7145C58.576 29.7056 58.5697 29.697 58.5637 29.6882C58.5518 29.6708 58.5395 29.6537 58.5266 29.637C58.5197 29.6281 58.5128 29.6192 58.5056 29.6105C58.4868 29.5877 58.4674 29.5655 58.4467 29.5443C58.4451 29.5427 58.4435 29.5409 58.4419 29.5393C58.4198 29.5168 58.3963 29.4957 58.3721 29.4751C58.3691 29.4726 58.3665 29.4697 58.3635 29.4672L56.54 27.9541V23.304C56.54 21.9282 55.4207 20.8089 54.0449 20.8089H47.93L43.004 16.7208C41.5529 15.5169 39.4469 15.5169 37.996 16.7208L33.07 20.8088H26.9551C25.5793 20.8088 24.46 21.9281 24.46 23.3039V27.9541L22.6365 29.4674C22.6335 29.4699 22.6308 29.4727 22.6278 29.4753C22.6037 29.4958 22.5801 29.517 22.558 29.5394C22.5564 29.5411 22.5548 29.5428 22.5532 29.5444C22.5326 29.5656 22.5131 29.5879 22.4944 29.6106C22.4872 29.6193 22.4803 29.6282 22.4733 29.6371C22.4604 29.6539 22.4481 29.671 22.4362 29.6884C22.4302 29.6971 22.4239 29.7057 22.4182 29.7146C22.403 29.7385 22.3888 29.763 22.3755 29.7881C22.37 29.7984 22.3651 29.8088 22.36 29.8193C22.3512 29.8372 22.3429 29.8553 22.335 29.8737C22.3307 29.884 22.3263 29.8943 22.3223 29.9047C22.3117 29.9319 22.302 29.9594 22.2937 29.9876C22.2929 29.9903 22.2923 29.993 22.2915 29.9958C22.2836 30.0232 22.2771 30.0512 22.2714 30.0793C22.2697 30.088 22.2682 30.0966 22.2667 30.1053C22.2626 30.1284 22.2593 30.1517 22.2568 30.1753C22.2559 30.1835 22.2548 30.1916 22.2541 30.1998C22.2517 30.2297 22.25 30.2598 22.25 30.2903V30.2935V30.294V48.3963C22.25 49.5168 22.7232 50.5282 23.4795 51.2435C23.5009 51.2649 23.5224 51.2862 23.5454 51.3055C24.241 51.9338 25.1619 52.3171 26.1709 52.3171H54.8291C55.8381 52.3171 56.7592 51.9338 57.4548 51.3053C57.4776 51.286 57.4989 51.265 57.5203 51.2437C58.2766 50.5284 58.75 49.5168 58.75 48.3962V30.294C58.75 30.2939 58.75 30.2937 58.75 30.2935ZM26.9551 22.9475H54.0449C54.2415 22.9475 54.4014 23.1074 54.4014 23.3039V31.6221L53.7963 32.1242L41.6382 42.214C40.9787 42.7613 40.0213 42.7612 39.3618 42.214L27.2037 32.1243L26.5986 31.6221V23.3039C26.5986 23.1074 26.7585 22.9475 26.9551 22.9475ZM24.3887 48.3963V32.5672L24.8486 32.949C24.8489 32.9492 24.8492 32.9495 24.8495 32.9497L35.2911 41.615L24.4982 49.0113C24.4274 48.8196 24.3887 48.6123 24.3887 48.3963ZM37.0023 43.035L37.996 43.8597C39.4469 45.0638 41.5531 45.0637 43.004 43.8597L43.9977 43.035L54.4215 50.1785H26.5784L37.0023 43.035ZM45.7089 41.615L56.1504 32.9497C56.1507 32.9495 56.151 32.9492 56.1513 32.949L56.6113 32.5672V48.3963C56.6113 48.6123 56.5725 48.8196 56.5018 49.0113L45.7089 41.615ZM39.3618 18.3667C40.0213 17.8194 40.9787 17.8194 41.6382 18.3667L44.5811 20.8089H36.4189L39.3618 18.3667Z" fill="#587461"/>
<path d="M31.6245 27.5791C31.6245 28.1697 32.1033 28.6484 32.6938 28.6484H42.8169C43.4075 28.6484 43.8862 28.1697 43.8862 27.5791C43.8862 26.9885 43.4075 26.5098 42.8169 26.5098H32.6938C32.1033 26.5098 31.6245 26.9885 31.6245 27.5791Z" fill="#587461"/>
<path d="M32.6938 32.9258H48.3062C48.8043 32.9258 49.2217 32.5846 49.3405 32.1235C49.3625 32.0379 49.3755 31.9488 49.3755 31.8564C49.3755 31.2659 48.8967 30.7871 48.3062 30.7871H32.6938C32.1033 30.7871 31.6245 31.2659 31.6245 31.8564C31.6245 31.9488 31.6375 32.038 31.6595 32.1235C31.7783 32.5847 32.1957 32.9258 32.6938 32.9258Z" fill="#587461"/>
</g>
<defs>
<filter id="filter0_d" x="0" y="0" width="81" height="81" filterUnits="userSpaceOnUse" color-interpolation-filters="sRGB">
<feFlood flood-opacity="0" result="BackgroundImageFix"/>
<feColorMatrix in="SourceAlpha" type="matrix" values="0 0 0 0 0 0 0 0 0 0 0 0 0 0 0 0 0 0 127 0" result="hardAlpha"/>
<feOffset dy="4"/>
<feGaussianBlur stdDeviation="2"/>
<feColorMatrix type="matrix" values="0 0 0 0 0 0 0 0 0 0 0 0 0 0 0 0 0 0 0.25 0"/>
<feBlend mode="normal" in2="BackgroundImageFix" result="effect1_dropShadow"/>
<feBlend mode="normal" in="SourceGraphic" in2="effect1_dropShadow" result="shape"/>
</filter>
<clipPath id="clip0">
<rect width="36.5" height="36.5" fill="white" transform="translate(22.25 15.8169)"/>
</clipPath>
</defs>
</svg>
