<svg width="36" height="36" viewBox="0 0 36 36" fill="none" xmlns="http://www.w3.org/2000/svg">
<path d="M31.4999 19.185C31.2639 21.7383 30.3056 24.1716 28.7372 26.2002C27.1688 28.2288 25.0551 29.7687 22.6434 30.6398C20.2317 31.5109 17.6218 31.6772 15.1191 31.1191C12.6164 30.5611 10.3243 29.3018 8.51119 27.4887C6.69804 25.6755 5.43876 23.3835 4.88071 20.8807C4.32267 18.378 4.48893 15.7681 5.36004 13.3564C6.23116 10.9448 7.7711 8.83105 9.79967 7.26263C11.8282 5.69421 14.2615 4.73596 16.8149 4.5C15.32 6.5224 14.6006 9.01417 14.7876 11.5221C14.9747 14.0301 16.0556 16.3876 17.834 18.1659C19.6123 19.9442 21.9698 21.0252 24.4777 21.2122C26.9857 21.3992 29.4775 20.6799 31.4999 19.185V19.185Z" stroke="#F19451" stroke-width="2" stroke-linecap="round" stroke-linejoin="round"/>
</svg>
