<svg width="36" height="36" viewBox="0 0 36 36" fill="none" xmlns="http://www.w3.org/2000/svg">
<path d="M33.0001 25.3801V29.8801C33.0018 30.2979 32.9163 30.7114 32.7489 31.0942C32.5816 31.4769 32.3361 31.8205 32.0283 32.1029C31.7204 32.3854 31.357 32.6004 30.9613 32.7342C30.5655 32.868 30.1462 32.9177 29.7301 32.8801C25.1144 32.3786 20.6806 30.8014 16.7851 28.2751C13.1609 25.9721 10.0881 22.8994 7.78514 19.2751C5.25011 15.362 3.67251 10.9066 3.18014 6.27015C3.14266 5.85535 3.19196 5.43729 3.32489 5.04258C3.45783 4.64788 3.6715 4.28518 3.95229 3.97758C4.23309 3.66998 4.57485 3.42421 4.95583 3.25593C5.33681 3.08765 5.74865 3.00054 6.16514 3.00015H10.6651C11.3931 2.99298 12.0988 3.25076 12.6508 3.72544C13.2027 4.20013 13.5633 4.85932 13.6651 5.58015C13.8551 7.02025 14.2073 8.43424 14.7151 9.79515C14.917 10.332 14.9606 10.9155 14.841 11.4765C14.7214 12.0374 14.4434 12.5523 14.0401 12.9601L12.1351 14.8651C14.2705 18.6205 17.3798 21.7298 21.1351 23.8651L23.0401 21.9601C23.448 21.5569 23.9629 21.2789 24.5238 21.1593C25.0848 21.0397 25.6683 21.0833 26.2051 21.2851C27.5661 21.793 28.98 22.1452 30.4201 22.3351C31.1488 22.4379 31.8142 22.805 32.2899 23.3664C32.7656 23.9278 33.0184 24.6445 33.0001 25.3801Z" stroke="#F19451" stroke-width="3" stroke-linecap="round" stroke-linejoin="round"/>
</svg>
